<mxfile host="app.diagrams.net" modified="2024-07-17T08:25:28.182Z" agent="Mozilla/5.0 (Windows NT 10.0; Win64; x64) AppleWebKit/537.36 (KHTML, like Gecko) Chrome/126.0.0.0 Safari/537.36" etag="dKPo9DKmr2NFl4-YS54k" version="24.7.0" type="device">
  <diagram name="Page-1" id="1za6YKgFq9bTA7tgQaAN">
    <mxGraphModel dx="1434" dy="738" grid="1" gridSize="10" guides="1" tooltips="1" connect="1" arrows="1" fold="1" page="1" pageScale="1" pageWidth="827" pageHeight="1169" math="0" shadow="0">
      <root>
        <mxCell id="0" />
        <mxCell id="1" parent="0" />
        <mxCell id="1glR2QQybOOhX_rA8TPO-1" value="User" style="shape=umlActor;verticalLabelPosition=bottom;verticalAlign=top;html=1;outlineConnect=0;" parent="1" vertex="1">
          <mxGeometry x="80" y="305" width="30" height="60" as="geometry" />
        </mxCell>
        <mxCell id="1glR2QQybOOhX_rA8TPO-3" value="FrontEnd" style="rounded=1;whiteSpace=wrap;html=1;" parent="1" vertex="1">
          <mxGeometry x="210" y="280" width="120" height="110" as="geometry" />
        </mxCell>
        <mxCell id="1glR2QQybOOhX_rA8TPO-4" value="" style="rounded=1;whiteSpace=wrap;html=1;" parent="1" vertex="1">
          <mxGeometry x="450" y="255" width="120" height="110" as="geometry" />
        </mxCell>
        <mxCell id="1glR2QQybOOhX_rA8TPO-5" value="BackEnd" style="text;html=1;align=center;verticalAlign=middle;whiteSpace=wrap;rounded=0;" parent="1" vertex="1">
          <mxGeometry x="480" y="260" width="60" height="30" as="geometry" />
        </mxCell>
        <mxCell id="1glR2QQybOOhX_rA8TPO-7" value="SocketIO" style="rounded=1;whiteSpace=wrap;html=1;" parent="1" vertex="1">
          <mxGeometry x="475" y="320" width="70" height="30" as="geometry" />
        </mxCell>
        <mxCell id="1glR2QQybOOhX_rA8TPO-8" value="" style="endArrow=classic;html=1;rounded=0;entryX=0;entryY=0.5;entryDx=0;entryDy=0;" parent="1" source="1glR2QQybOOhX_rA8TPO-1" target="1glR2QQybOOhX_rA8TPO-3" edge="1">
          <mxGeometry width="50" height="50" relative="1" as="geometry">
            <mxPoint x="130" y="410" as="sourcePoint" />
            <mxPoint x="180" y="360" as="targetPoint" />
          </mxGeometry>
        </mxCell>
        <mxCell id="1glR2QQybOOhX_rA8TPO-9" value="" style="endArrow=classic;startArrow=classic;html=1;rounded=0;exitX=0;exitY=0.5;exitDx=0;exitDy=0;" parent="1" source="1glR2QQybOOhX_rA8TPO-7" edge="1">
          <mxGeometry width="50" height="50" relative="1" as="geometry">
            <mxPoint x="130" y="410" as="sourcePoint" />
            <mxPoint x="330" y="335" as="targetPoint" />
          </mxGeometry>
        </mxCell>
        <mxCell id="1glR2QQybOOhX_rA8TPO-10" value="Database" style="strokeWidth=2;html=1;shape=mxgraph.flowchart.database;whiteSpace=wrap;" parent="1" vertex="1">
          <mxGeometry x="690" y="280" width="80" height="80" as="geometry" />
        </mxCell>
        <mxCell id="1glR2QQybOOhX_rA8TPO-11" value="" style="endArrow=classic;startArrow=classic;html=1;rounded=0;exitX=1;exitY=0.75;exitDx=0;exitDy=0;" parent="1" source="1glR2QQybOOhX_rA8TPO-7" edge="1">
          <mxGeometry width="50" height="50" relative="1" as="geometry">
            <mxPoint x="130" y="410" as="sourcePoint" />
            <mxPoint x="690" y="343" as="targetPoint" />
          </mxGeometry>
        </mxCell>
        <mxCell id="1YQTjhxsULP3hFsWvg0e-2" value="" style="endArrow=classic;startArrow=classic;html=1;rounded=0;entryX=0.56;entryY=1.048;entryDx=0;entryDy=0;entryPerimeter=0;exitX=1;exitY=0.25;exitDx=0;exitDy=0;" parent="1" source="1glR2QQybOOhX_rA8TPO-7" target="1YQTjhxsULP3hFsWvg0e-5" edge="1">
          <mxGeometry width="50" height="50" relative="1" as="geometry">
            <mxPoint x="570" y="283" as="sourcePoint" />
            <mxPoint x="638" y="160.99199999999996" as="targetPoint" />
            <Array as="points">
              <mxPoint x="638" y="328" />
            </Array>
          </mxGeometry>
        </mxCell>
        <mxCell id="1YQTjhxsULP3hFsWvg0e-5" value="" style="image;sketch=0;aspect=fixed;html=1;points=[];align=center;fontSize=12;image=img/lib/mscae/Cache_Redis_Product.svg;" parent="1" vertex="1">
          <mxGeometry x="610" y="120" width="50" height="42" as="geometry" />
        </mxCell>
        <mxCell id="1YQTjhxsULP3hFsWvg0e-6" value="Redis(Cache)" style="text;html=1;align=center;verticalAlign=middle;whiteSpace=wrap;rounded=0;" parent="1" vertex="1">
          <mxGeometry x="605" y="90" width="60" height="30" as="geometry" />
        </mxCell>
      </root>
    </mxGraphModel>
  </diagram>
</mxfile>
